<?xml version="1.0"?>
<!DOCTYPE svg PUBLIC '-//W3C//DTD SVG 1.1//EN' 'http://www.w3.org/Graphics/SVG/1.1/DTD/svg11.dtd'>
<svg enable-background="new 0 0 128 128" height="128px" id="Layer_1" version="1.1"
	viewBox="0 0 128 128" width="128px" xml:space="preserve" xmlns="http://www.w3.org/2000/svg"
	xmlns:xlink="http://www.w3.org/1999/xlink"><g><g><path d="M88.879,78.67    c-6.326,4.503-13.99,7.348-22.335,7.891l21.69,31.459l1.264-18.313l18.081,6.087L88.879,78.67z" fill="none" stroke="#bf9765" stroke-miterlimit="10" stroke-width="2"/><path d="M20.947,105.792l18.083-6.087l1.261,18.313    l21.652-31.398c-8.439-0.32-16.238-2.977-22.709-7.348L20.947,105.792z" fill="none" stroke="#bf9765" stroke-miterlimit="10" stroke-width="2"/><path d="M106.055,46.086    c0-22.434-18.992-40.617-42.418-40.617c-23.422,0-42.413,18.184-42.413,40.617c0,13.723,7.128,25.832,18.012,33.186    c6.471,4.373,14.27,7.027,22.709,7.349c0.565,0.021,1.121,0.082,1.692,0.082c0.982,0,1.943-0.077,2.908-0.142    c8.345-0.543,16.009-3.388,22.335-7.891C99.284,71.27,106.055,59.448,106.055,46.086z" fill="none" stroke="#bf9765" stroke-miterlimit="10" stroke-width="2"/></g><path
			d="M90.146,46.086   c0,14.019-11.867,25.385-26.511,25.385c-14.639,0-26.506-11.366-26.506-25.385c0-14.02,11.867-25.386,26.506-25.386   C78.279,20.7,90.146,32.066,90.146,46.086z"
			fill="none" stroke="#bf9765" stroke-miterlimit="10" stroke-width="2" /></g></svg>